<mxfile host="Electron" modified="2025-03-17T12:09:18.682Z" agent="Mozilla/5.0 (Macintosh; Intel Mac OS X 10_15_7) AppleWebKit/537.36 (KHTML, like Gecko) draw.io/24.4.13 Chrome/124.0.6367.207 Electron/30.0.6 Safari/537.36" etag="rIXOiX6qOkVMMAXUSA-R" version="24.4.13" type="device">
  <diagram name="Page-1" id="xYreMRHN9JPm_96A27j8">
    <mxGraphModel dx="1266" dy="682" grid="1" gridSize="10" guides="1" tooltips="1" connect="1" arrows="1" fold="1" page="1" pageScale="1" pageWidth="827" pageHeight="1169" math="0" shadow="0">
      <root>
        <mxCell id="0" />
        <mxCell id="1" parent="0" />
        <mxCell id="HluA-xYAStge_orhJIB9-1" value="Start" style="ellipse;fillColor=#D5E8D4;strokeColor=#82B366;" parent="1" vertex="1">
          <mxGeometry x="315" y="10" width="120" height="60" as="geometry" />
        </mxCell>
        <mxCell id="HluA-xYAStge_orhJIB9-2" value="Receive Question &amp; Process Input" style="rounded=1;fillColor=#FFF2CC;strokeColor=#D6B656;" parent="1" vertex="1">
          <mxGeometry x="270" y="110" width="210" height="60" as="geometry" />
        </mxCell>
        <mxCell id="HluA-xYAStge_orhJIB9-3" value="Alternative Decoding Strategy (Top-K / Beam Search)" style="rounded=1;fillColor=#FFDFDF;strokeColor=#B85450;" parent="1" vertex="1">
          <mxGeometry x="215" y="220" width="320" height="60" as="geometry" />
        </mxCell>
        <mxCell id="HluA-xYAStge_orhJIB9-4" value="Evaluate Confidence Scores for Paths" style="rounded=1;fillColor=#D5E8D4;strokeColor=#82B366;" parent="1" vertex="1">
          <mxGeometry x="265" y="330" width="220" height="60" as="geometry" />
        </mxCell>
        <mxCell id="HluA-xYAStge_orhJIB9-18" style="edgeStyle=orthogonalEdgeStyle;rounded=0;orthogonalLoop=1;jettySize=auto;html=1;exitX=0;exitY=1;exitDx=0;exitDy=0;entryX=1;entryY=0.5;entryDx=0;entryDy=0;" parent="1" source="HluA-xYAStge_orhJIB9-5" target="HluA-xYAStge_orhJIB9-6" edge="1">
          <mxGeometry relative="1" as="geometry">
            <Array as="points">
              <mxPoint x="330" y="548" />
              <mxPoint x="330" y="585" />
            </Array>
          </mxGeometry>
        </mxCell>
        <mxCell id="HluA-xYAStge_orhJIB9-5" value="Filter Low-Confidence Paths?" style="rhombus;fillColor=#DAE8FC;strokeColor=#6C8EBF;" parent="1" vertex="1">
          <mxGeometry x="280" y="435" width="190" height="150" as="geometry" />
        </mxCell>
        <mxCell id="9wowJn7Cc19f-j2Jqn7K-2" style="edgeStyle=orthogonalEdgeStyle;rounded=0;orthogonalLoop=1;jettySize=auto;html=1;entryX=0;entryY=0.5;entryDx=0;entryDy=0;" edge="1" parent="1" source="HluA-xYAStge_orhJIB9-6" target="HluA-xYAStge_orhJIB9-4">
          <mxGeometry relative="1" as="geometry">
            <Array as="points">
              <mxPoint x="180" y="360" />
            </Array>
          </mxGeometry>
        </mxCell>
        <mxCell id="HluA-xYAStge_orhJIB9-6" value="Recalculate Scores" style="rounded=1;fillColor=#FFF2CC;strokeColor=#D6B656;" parent="1" vertex="1">
          <mxGeometry x="95" y="555" width="160" height="60" as="geometry" />
        </mxCell>
        <mxCell id="HluA-xYAStge_orhJIB9-7" value="Select Best Path &amp; Generate Answer" style="rounded=1;fillColor=#FFDFDF;strokeColor=#B85450;" parent="1" vertex="1">
          <mxGeometry x="265" y="640" width="220" height="60" as="geometry" />
        </mxCell>
        <mxCell id="HluA-xYAStge_orhJIB9-8" value="End" style="ellipse;fillColor=#D5E8D4;strokeColor=#82B366;" parent="1" vertex="1">
          <mxGeometry x="315" y="760" width="120" height="60" as="geometry" />
        </mxCell>
        <mxCell id="HluA-xYAStge_orhJIB9-9" parent="1" source="HluA-xYAStge_orhJIB9-1" target="HluA-xYAStge_orhJIB9-2" edge="1">
          <mxGeometry relative="1" as="geometry" />
        </mxCell>
        <mxCell id="HluA-xYAStge_orhJIB9-10" parent="1" source="HluA-xYAStge_orhJIB9-2" target="HluA-xYAStge_orhJIB9-3" edge="1">
          <mxGeometry relative="1" as="geometry" />
        </mxCell>
        <mxCell id="HluA-xYAStge_orhJIB9-11" parent="1" source="HluA-xYAStge_orhJIB9-3" target="HluA-xYAStge_orhJIB9-4" edge="1">
          <mxGeometry relative="1" as="geometry" />
        </mxCell>
        <mxCell id="HluA-xYAStge_orhJIB9-12" parent="1" source="HluA-xYAStge_orhJIB9-4" target="HluA-xYAStge_orhJIB9-5" edge="1">
          <mxGeometry relative="1" as="geometry" />
        </mxCell>
        <mxCell id="HluA-xYAStge_orhJIB9-14" parent="1" source="HluA-xYAStge_orhJIB9-5" target="HluA-xYAStge_orhJIB9-7" edge="1">
          <mxGeometry relative="1" as="geometry">
            <mxPoint x="390" y="490" as="sourcePoint" />
          </mxGeometry>
        </mxCell>
        <mxCell id="HluA-xYAStge_orhJIB9-16" parent="1" source="HluA-xYAStge_orhJIB9-7" target="HluA-xYAStge_orhJIB9-8" edge="1">
          <mxGeometry relative="1" as="geometry" />
        </mxCell>
      </root>
    </mxGraphModel>
  </diagram>
</mxfile>
